<?xml version="1.0" encoding="UTF-8" standalone="no"?>
<!-- Created with Inkscape (http://www.inkscape.org/) -->
<svg xmlns:inkscape="http://www.inkscape.org/namespaces/inkscape" xmlns:rdf="http://www.w3.org/1999/02/22-rdf-syntax-ns#" xmlns="http://www.w3.org/2000/svg" xmlns:xlink="http://www.w3.org/1999/xlink" xmlns:ns1="http://sozi.baierouge.fr" xmlns:cc="http://creativecommons.org/ns#" xmlns:sodipodi="http://sodipodi.sourceforge.net/DTD/sodipodi-0.dtd" xmlns:dc="http://purl.org/dc/elements/1.1/" id="svg2" xml:space="preserve" viewBox="0 0 150.45 109.16" version="1.1" inkscape:version="0.91 r13725">
  <g id="g10" transform="matrix(1.25 0 0 -1.25 0 109.16)">
    <g id="g12">
      <path id="path14" style="fill-rule:evenodd;fill:#d2c8ba" d="m99.359 49.531c1.149 0.215 1.786 0.359 1.918 0.441 0.137 0.055 0.442 0.371 0.922 0.961l7.36-0.121c-0.239-0.215-1.215-0.492-2.918-0.84-1.84-0.375-3.215-0.519-4.121-0.441l-0.161 1.039c-0.214-0.238-0.734-0.586-1.558-1.039h-1.442zm-7.398 2.602c-0.348 0.773-0.867 1.453-1.563 2.039-0.878 0.613-1.558 1.093-2.039 1.441-0.906 0.664-1.531 1.172-1.879 1.52 0.586-0.028 1.211 0 1.879 0.078 0.801-0.078 1.934-0.746 3.403-2 1.383-1.227 2.293-2.278 2.718-3.161-0.187-0.183-0.308-0.32-0.359-0.398-0.082-0.105-0.121-0.32-0.121-0.641 0-0.398 0.16-0.757 0.48-1.078-0.48 0.239-1.148 0.586-2 1.039-0.187 0.106-0.359 0.493-0.519 1.161zm-73.082 12.878-3.957 3.2c-0.137 0.375-0.43 0.855-0.883 1.441-0.559 0.691-0.879 1.121-0.961 1.281l-0.719 0.84c0 0.238-0.121 0.438-0.359 0.598-0.238 0.187-0.535 0.281-0.879 0.281 0.184 0.852 0.785 2.359 1.801 4.52 0.797 1.761 1.144 3.121 1.039 4.082l2.68 2.437-0.563-1.238c-0.371-1.789-1.199-5.082-2.476-9.883 0-1.227 0.398-2.25 1.199-3.078 2.211-2.32 3.586-3.828 4.121-4.52l-0.043 0.039zm8.16-12.078h-0.277l-1.364 0.84c-0.023 0.027-0.691 0.652-2 1.879-0.824 0.746-1.343 1.574-1.558 2.481-0.426 0.48-0.774 1.304-1.039 2.48-0.828 1.25-1.094 1.879-0.801 1.879l1.559-0.16v-0.039c0.027-2.348 1.043-4.36 3.043-6.039 1.757-1.469 3.851-2.297 6.277-2.481 0.32-0.027 0.656-0.043 1-0.043-0.184-0.183-0.707-0.332-1.559-0.437-0.132-0.028-0.254-0.055-0.359-0.082-1.414-0.184-2.387-0.278-2.922-0.278zm32.922-10c-0.43-0.32-1-0.48-1.723-0.48-1.093-0.11-2.144-0.281-3.16-0.52-0.879-0.187-1.945-0.32-3.199-0.402-0.957 0-2.32 0.242-4.078 0.723-1.735 0.343-4.016 0.543-6.84 0.597h-1.281c-2.055 0.934-3.282 1.535-3.68 1.801-0.961 0.613-2.398 1.84-4.32 3.68l-0.078 0.121-0.082 0.277c2.16-0.586 4.093-1.41 5.8-2.476 1.492-0.911 2.547-1.403 3.16-1.481 1.758-0.215 6.852-0.375 15.282-0.48l3.636 0.039c0 0.558-0.011 0.922-0.039 1.078-0.054 0.082-0.226 0.453-0.519 1.121s-0.465 1.105-0.52 1.32l0.36-0.758c0.265-0.535 0.492-1.093 0.679-1.683 0.586-1.09 0.789-1.918 0.602-2.477zm5.918 1.559c-2.691 1.441-4.332 2.707-4.918 3.801l0.559 0.558c0.054 0 0.718-0.293 2-0.879 1.335-0.586 2.386-0.972 3.16-1.16 1.414-0.32 3.265-0.48 5.558-0.48 0.989 0 3.137 0.574 6.442 1.718 3.015 1.067 4.855 1.801 5.519 2.204-0.664-1.414-1.453-2.348-2.359-2.801-1.442-0.453-2.84-0.977-4.199-1.563-0.536-0.16-1.321-0.304-2.36-0.437-1.043-0.133-1.922-0.215-2.64-0.242-0.961 0.027-1.868 0.043-2.719 0.043-1.629 0.023-2.977-0.227-4.043-0.762z" inkscape:connector-curvature="0"/>
      <path id="path16" style="fill-rule:evenodd;fill:#b3aa9e" d="m58.16 71.57-0.64-0.719c0.187-0.105 0.281-0.187 0.281-0.238l2.16-0.203c0.48 0 0.785 0.109 0.918 0.32 0.109 0.16 0.254 0.442 0.441 0.84-0.398 0.535-0.855 0.977-1.359 1.32v1.68c-4.535-0.238-7.574-0.68-9.121-1.316-0.906-0.375-1.36-0.911-1.36-1.602 0-0.32 0.067-0.519 0.2-0.602 0.132-0.05 0.199-0.093 0.199-0.117l2.121-0.203c0.078 0 2.133 0.281 6.16 0.84zm38.52-22.16 2.679 0.121h1.442l-0.281-0.16-3.84 0.039zm-2.2 2.64c-0.425 0.883-1.332 1.934-2.718 3.161-1.469 1.254-2.602 1.922-3.403 2l0.364 0.082c0.797-0.16 1.515 0.011 2.156 0.519 0.613 0.481 0.976 1.094 1.082 1.84l-1.602 0.398c-0.636 0.961-1.57 1.801-2.797 2.52-1.574 0.906-3.308 1.363-5.203 1.363-0.746 0-1.332-0.308-1.757-0.922-0.293-0.398-0.442-0.734-0.442-1 0-0.851 0.508-1.668 1.52-2.441 0.132-0.105 1.16-0.746 3.082-1.918 0.398-2.453 0.277-4.812-0.36-7.082-0.48-1.652-1.093-2.957-1.84-3.918-1.55-0.426-3.187-0.68-4.921-0.762 1.359 0.586 2.761 1.11 4.199 1.563 0.906 0.453 1.695 1.387 2.359 2.801-0.664-0.403-2.504-1.137-5.519-2.204-3.305-1.144-5.453-1.718-6.438-1.718-2.293 0-4.148 0.16-5.562 0.48-0.774 0.188-1.825 0.574-3.157 1.16-1.281 0.586-1.949 0.879-2 0.879 0 0.668-0.242 1.242-0.722 1.719-0.481 0.48-1.055 0.723-1.719 0.723 0.051 0.183-0.187 0.226-0.719 0.117-0.535-0.106-0.801-0.277-0.801-0.52 0.079-0.16 0.2-0.277 0.36-0.359l0.441 0.121-0.64-0.559c-0.028 0-0.043-0.015-0.043-0.043-0.211-0.183-0.383-0.093-0.52 0.282l0.199-0.602-0.597-0.758c0.293-0.375 0.547-0.629 0.758-0.761 0.32-0.211 0.734-0.332 1.242-0.36 0.558-0.398 1.586-1.867 3.078-4.398l-1.879-0.52c0.187 0.559-0.016 1.387-0.602 2.477-0.183 0.59-0.414 1.148-0.679 1.683l-0.36 0.758c0.055-0.215 0.227-0.652 0.52-1.32s0.469-1.039 0.519-1.121c0.028-0.156 0.043-0.52 0.043-1.078l-3.64-0.039c-8.43 0.105-13.52 0.265-15.282 0.48-0.613 0.078-1.668 0.57-3.16 1.481-1.707 1.066-3.64 1.89-5.8 2.476l-0.719 0.723c0.426 0.32 1.121 1.078 2.078 2.277 0.988 1.227 1.508 2.016 1.562 2.363h-0.359l-0.082 0.36 1.199 0.64-0.039-0.48c1.281-0.027 2.094 0.023 2.442 0.16 0.613 0.266 0.867 0.918 0.757 1.957l-0.437-0.039c-0.242-0.027-0.723-0.254-1.442-0.68-0.668-0.375-1.093-0.64-1.281-0.8l-2-0.801-1.637-0.637 0.317-0.043c-0.344 0-0.68 0.016-1 0.043-2.426 0.184-4.52 1.012-6.277 2.481-2 1.679-3.016 3.691-3.04 6.039v0.039l-1.562 0.16c-0.504 0.719-0.879 1.558-1.121 2.519l0.043-0.039c-0.535 0.692-1.906 2.2-4.121 4.52-0.801 0.828-1.199 1.851-1.199 3.078 1.277 4.801 2.105 8.094 2.48 9.883 0.238 0.265 0.547 0.664 0.918 1.199 0.242 0.293 0.469 0.508 0.68 0.641l0.082 0.078v0.039c0.027 0 0.05 0.015 0.078 0.043l0.121 0.117c5.762 1.043 9.238 1.656 10.441 1.84 4.293 0.617 8.493 0.922 12.598 0.922 4.375 0 9.414-0.348 15.121-1.039 2.984-0.375 6.586-0.84 10.801-1.403 0.504-0.183 0.316-0.304-0.563-0.359-1.226-0.055-1.839-0.52-1.839-1.398 0-0.321 0.093-0.536 0.281-0.641 0.078-0.055 0.16-0.082 0.238-0.082l1.281-0.039c1.039 0 1.868 0.105 2.481 0.32 0.398 0.133 0.801 0.375 1.199 0.719l-0.398 0.562-2.36 0.918c2.774-0.132 6-1.414 9.68-3.84 2.293-1.519 6.867-4.574 13.719-9.16 4.535-2.746 9.254-6.144 14.16-10.199 1.332-0.906 2.879-2.734 4.64-5.48 1.895-2.934 3.149-4.664 3.758-5.2-1.679-0.64-2.851-0.984-3.519-1.039-1.813-0.105-4.184-0.293-7.118-0.562l-0.039 0.121c0.907-0.078 2.278 0.066 4.118 0.441 1.707 0.348 2.679 0.625 2.921 0.84l-7.363 0.121 0.16 0.438-5.879 1.883-2-1.204zm1.879-2.64-2.879 0.082 0.36-0.719c-0.453 0.824-0.813 1.438-1.082 1.84l-0.281 0.359c0.855-0.453 1.523-0.8 2-1.039 0.136-0.054 0.253-0.109 0.363-0.16 0.535-0.215 1.039-0.336 1.519-0.363zm-2.64 6.523v1.559h-1.52v-1.559h1.52zm-5.36-0.32c0.481-0.348 1.161-0.828 2.039-1.441 0.696-0.586 1.215-1.266 1.563-2.039-0.16 0.32-0.684 0.878-1.563 1.679-0.746 0.692-1.425 1.293-2.039 1.801zm-1.558 0 0.48-0.281 0.481-0.36-0.961 0.641zm27.519-5.641-0.082 0.121 0.602-0.683-0.52 0.562zm-42.64 23.239c-0.293-0.348-0.575-0.547-0.84-0.598 0.027-0.242 0.105-0.48 0.238-0.723 0.137-0.211 0.203-0.347 0.203-0.398 1.094 0 1.852 0.144 2.281 0.441-0.91 0.985-1.535 1.41-1.882 1.278zm-2.16-6.039v1.64h-3.399c0.531 0.16 0.879 0.305 1.039 0.442l-0.801 1.316c-1.148-0.238-1.972-0.531-2.48-0.879-0.266-0.187-0.52-0.492-0.758-0.918l1.559-0.16c0.242 0 0.508 0.023 0.8 0.078v-1.719h4.04v0.161l0.519-0.282c0.375-0.051 0.801-0.039 1.281 0.039 0.453 0.055 0.746 0.137 0.879 0.243v1.32l-0.84-0.242c-0.507-0.078-0.972-0.278-1.398-0.598l-0.441-0.441zm3.601-0.84c0.344-0.028 0.664-0.028 0.957 0l-1.316 0.519c-0.055-0.16-0.149-0.265-0.282-0.32 0-0.078 0.211-0.145 0.641-0.199zm-8.281-7.52c0 0.238-0.117 0.785-0.36 1.641-1.945-0.668-3.015-1.133-3.199-1.403 0.106-0.21 0.094-0.414-0.043-0.597 0.242-0.11 0.364-0.199 0.364-0.281l0.757-0.122c0.586-0.078 1.039-0.117 1.36-0.117 0.426 0 0.773 0.133 1.043 0.399 0.078-0.696 0.316-1.067 0.718-1.121 0.184 0.054 0.321 0.254 0.399 0.601-0.027 0.215-0.215 0.442-0.559 0.68l-0.48 0.32zm23.68-39.519c0.32-0.055 0.773-0.082 1.359-0.082 0.586 0.027 1.066 0.093 1.441 0.199-0.265-0.106-0.695-0.184-1.281-0.238-0.586-0.028-1.094-0.016-1.519 0.039v0.082zm-1.04 10.199-0.48 2.48c-0.078 1.039-0.055 1.735 0.078 2.082l0.484 0.039h0.118c0.242-0.293 0.492-0.773 0.761-1.441 0.239-0.668 0.36-1.133 0.36-1.398 0-0.668-0.442-1.254-1.321-1.762zm-14.839 15.719c-1.227-0.481-2.039-0.774-2.442-0.879-0.508-0.133-1.492-0.199-2.961-0.199-0.664 0-1.117 0.121-1.359 0.359 1.066 0.535 2.414 0.785 4.043 0.762 0.851 0 1.758-0.016 2.719-0.043zm24.918-19.68 0.082 0.562-0.039-0.32-0.043-0.242zm-51.797 58.922c-0.16 0.16-0.242 0.277-0.242 0.359-0.454 0.028-0.852 0-1.2-0.082-0.558-0.133-1.375-0.426-2.441-0.879l2.48-0.238c0.403 0 0.696 0.094 0.879 0.277 0.137 0.11 0.309 0.297 0.524 0.563zm-7.082-4.082-1.321 0.519c-0.078 0-0.547-0.199-1.398-0.597-0.801-0.348-1.32-0.575-1.563-0.68l1.204-0.16c1.144 0.078 2.171 0.387 3.078 0.918zm-2.68 4.281c-0.398 0.215-0.785 0.32-1.16 0.32-1.145-0.16-2.281-0.425-3.399-0.8-2.214-0.747-3.32-1.641-3.32-2.68 0-1.762 1.652-2.16 4.957-1.199 3.281 0.933 4.977 1.933 5.082 3-1.305 0.824-2.027 1.277-2.16 1.359zm13.602-22.801c0.265-0.48 0.425-0.758 0.476-0.84 0.188-0.238 0.402-0.359 0.641-0.359 0.695 0 1.136 0.16 1.32 0.481 0.188 0.343-0.625 1.093-2.437 2.238l-0.043 0.801c-0.719 0.187-1.348 0.281-1.879 0.281-0.985 0-2.012-0.242-3.078-0.723-1.336-0.586-2-1.332-2-2.238 0-0.426 0.117-0.856 0.359-1.281 0.426-0.746 1.105-1.118 2.039-1.118 0.879 0 1.801 0.25 2.762 0.758 1.066 0.586 1.679 1.254 1.84 2zm-3.043-9.918c-1.227-0.375-1.84-0.828-1.84-1.363 0-0.531 0.613-0.984 1.84-1.359 1.203-0.371 2.652-0.559 4.363-0.559 1.707 0 3.172 0.188 4.398 0.559 1.2 0.375 1.801 0.828 1.801 1.359 0 0.535-0.601 0.988-1.801 1.363-1.226 0.371-2.695 0.559-4.398 0.559-1.707 0-3.16-0.188-4.363-0.559zm-20.481 15.16c-0.316-0.214-0.531-0.363-0.637-0.441-0.214-0.187-0.32-0.441-0.32-0.762 0-0.531 0.387-0.613 1.16-0.238 1.68 0.133 2.918 0.465 3.719 1 0.535 0.398 0.801 0.824 0.801 1.281 0 0.344-0.039 0.625-0.121 0.84-0.106 0.266-0.2 0.492-0.282 0.68h-0.878c0 1.039-0.454 2.094-1.36 3.16-1.094 1.305-2.465 1.957-4.121 1.957-1.437 0-2.48-0.16-3.117-0.477-0.59-0.32-0.883-0.8-0.883-1.441 0-0.055 0.188-0.812 0.563-2.281 0.343-1.625 0.519-2.852 0.519-3.68 2.266 0.027 3.918 0.16 4.957 0.402zm-16.199-28.043-3.719 8.84c0.559-1.011 1.266-2.558 2.121-4.636 0.746-1.817 1.278-3.215 1.598-4.204zm26.199-29.039 0.32-0.117 2.442-0.883 1.719-0.64c-2.348 0.773-4.305 1.48-5.879 2.121-1.492 0.586-2.852 1.238-4.078 1.961 1.253-0.641 2.519-1.242 3.796-1.801l1.68-0.641zm2.801 1.961c0.109 1.735 0.375 3.946 0.801 6.641 0.453 2.508 0.695 3.934 0.718 4.281 0.11 0.399 0.364 1.024 0.762 1.879 0.399 0.852 0.641 1.399 0.719 1.641 0.426 0.613 1.309 1.691 2.641 3.238 1.601 1.895 2.828 3.188 3.679 3.883l-0.398-1.043c-0.266-0.774-0.403-1.32-0.403-1.637 0-0.215 0.082-2.015 0.243-5.402-0.055-3.281-0.653-4.918-1.801-4.918-1.254 0-2.641-0.977-4.16-2.922-1.465-1.891-2.2-3.547-2.2-4.957 0-0.32 0.051-0.496 0.161-0.523 0.054 0 0.148 0.015 0.281 0.042 0.183 0.024-0.149-0.054-1-0.242l-0.043 0.039zm-10.957 34.282c0.773 1.757 2 2.492 3.68 2.199l0.078-0.121c-0.321-3.813-0.602-6.309-0.84-7.481-0.348-1.519-0.934-2.281-1.762-2.281-0.586 0-1.051 0.309-1.398 0.922-0.348 0.613-0.52 1.48-0.52 2.598 0 0.293 0.012 0.585 0.039 0.882 0.055 1.094 0.254 2.078 0.602 2.957 0.027 0.11 0.066 0.215 0.121 0.325zm-0.883 6.679-0.199-0.082-0.078 0.082h0.277zm-11.359-1.203c-0.719 0.801-1.078 2.547-1.078 5.242 0 2.481 1.519 4.305 4.558 5.481v-6.641c0.028-1.601-0.027-2.668-0.16-3.199-0.266-0.906-0.855-1.359-1.762-1.359-0.746 0-1.265 0.156-1.558 0.476zm17.082-8.078c0.691 0 1.078-0.121 1.16-0.359l-0.121-0.602c-0.375-0.453-0.801-0.652-1.281-0.598l0.242 1.559zm14.918-1.398c-1.602 0.183-3.84 0.382-6.719 0.597 2.824-0.054 5.105-0.254 6.84-0.597h-0.121zm4.359-0.801-0.16 0.078c1.254 0.082 2.32 0.215 3.199 0.402 1.016 0.239 2.067 0.41 3.16 0.52-0.211-0.215-0.664-0.535-1.359-0.961-0.641-0.375-1.012-0.559-1.117-0.559-0.375 0-1.617 0.172-3.723 0.52zm0.723-27.602c-0.563-0.718-1.403-3.066-2.524-7.039l-0.597-0.48c0.664 2.398 1.121 3.984 1.359 4.758 0.398 1.175 0.988 2.093 1.762 2.761zm-1.364 23.403-0.117-1.243c-0.082-0.425-0.269-0.773-0.562-1.039-0.266-0.16-0.426-0.254-0.481-0.281-0.16 0.027-0.277 0.106-0.359 0.242l-0.078 0.2c0 0.21 0.265 0.625 0.801 1.238 0.265 0.32 0.531 0.613 0.796 0.883z" inkscape:connector-curvature="0"/>
      <path id="path18" style="fill-rule:evenodd;fill:#9b9286" d="m102.56 49.41c2.933 0.269 5.308 0.453 7.121 0.562 0.668 0.055 1.84 0.399 3.519 1.039l1.039-0.918c-1.414-0.48-2.664-0.906-3.758-1.281-2.109-0.668-3.839-1.094-5.203-1.281-1.066-0.133-2.613-0.266-4.636-0.398-1.653-0.083-2.789-0.122-3.403-0.122-2.691 0-4.414 0.786-5.16 2.36-1.172 2.562-2.613 4.429-4.316 5.601l-0.481 0.36c-0.16 0.187-0.308 0.426-0.441 0.718l-0.039-0.437c-0.426 0.293-0.789 0.574-1.082 0.84l-0.199 0.879 0.96-0.199c0.348-0.348 0.973-0.856 1.879-1.52 0.614-0.508 1.293-1.109 2.039-1.801 0.883-0.801 1.403-1.359 1.563-1.679 0.16-0.668 0.332-1.055 0.519-1.161l0.282-0.359c0.265-0.402 0.625-1.016 1.078-1.84l-0.36 0.719 2.879-0.082h0.321l3.84-0.039c-0.372-0.211-0.84-0.52-1.399-0.918l0.359-0.403c0.133-0.078 0.243-0.144 0.321-0.199 0.078-0.051 0.277-0.078 0.597-0.078 0.829 0 1.547 0.547 2.161 1.637zm-85.919 34.281 1.039 0.602c-0.215-0.133-0.442-0.348-0.68-0.641-0.375-0.535-0.68-0.934-0.922-1.199l0.563 1.238zm-1.719-15.48 3.957-3.2c0.242-0.961 0.613-1.8 1.121-2.519-0.293 0-0.027-0.629 0.801-1.879 0.265-1.176 0.613-2 1.039-2.48 0.215-0.907 0.734-1.735 1.558-2.481 1.309-1.227 1.977-1.852 2-1.879-0.664 0.293-1.519 0.985-2.558 2.078-1.121 1.176-1.813 2.149-2.078 2.922l-0.282 0.68c0-0.613 0.399-3.762 1.2-9.442 0-1.359-0.293-2.332-0.879-2.918-0.348-0.347-0.707-0.523-1.082-0.523-0.746 0-1.68 0.762-2.797 2.281-0.16 0.215-1.082 1.625-2.762 4.242l-0.281 1.04 0.16-4.2c0-2.109-0.227-3.574-0.68-4.402-0.828-1.52-1.414-2.906-1.757-4.16l-0.403-0.16c-0.293 0.32-0.531 0.867-0.719 1.64-0.16 0.774-0.718 1.668-1.679 2.68l2.16 2.641c-0.453 0.453-0.734 0.761-0.84 0.921-0.375 0.504-0.562 1.051-0.562 1.641 0 0.559 0.253 1.664 0.761 3.32 0.907 2.907 1.481 4.825 1.719 5.758-1.039-0.453-1.906-0.812-2.598-1.078-1.281-0.508-2.136-0.773-2.562-0.801-0.984 2.399 0.562 4.227 4.641 5.481 2.082 0.613 4.375 1.051 6.878 1.32-0.16 0.238-0.652 0.719-1.476 1.438-0.934 0.828-1.563 1.414-1.883 1.761l-0.117 0.278zm16.68-19.758c-1.68 0.293-2.907-0.442-3.68-2.199 0.211 0.851 0.371 1.453 0.476 1.796 1.149 1.094 2 1.856 2.563 2.282 0.344 0.32 1.387 1.574 3.117 3.761h0.363c-0.054-0.347-0.574-1.136-1.562-2.363-0.957-1.199-1.652-1.957-2.078-2.277l0.719-0.723 0.082-0.277zm10.277-22.043c0.562 4.137 2.586 7.148 6.082 9.043 2.078 1.144 3.211 1.785 3.398 1.918 1.016 0.801 1.52 1.816 1.52 3.039 0 0.348-0.078 0.574-0.238 0.683-0.215 0.106-0.414 0.227-0.602 0.36 2.106-0.348 3.348-0.52 3.723-0.52 0.105 0 0.476 0.184 1.117 0.559 0.695 0.426 1.148 0.746 1.359 0.961 0.723 0 1.297 0.156 1.723 0.48l1.879 0.52 0.082-0.602c-0.375-0.851-1.215-1.426-2.524-1.718-1.304-0.11-2.011-0.176-2.117-0.2 0.133-0.242 1.172-1.082 3.117-2.523 1.868-1.758 2.801-3.68 2.801-5.758 0-0.801-0.652-1.531-1.961-2.199-1.57-0.828-2.613-1.746-3.117-2.762-0.266-0.504-0.496-2.281-0.68-5.32-0.214-2.985-0.429-4.664-0.64-5.039-0.426-0.746-1.496-1.067-3.199-0.961l-2.922 0.121c-0.692-0.746-1.16-2.426-1.399-5.039-0.136-1.414-0.308-3.453-0.519-6.121l-0.282-0.52-3.281 1.68-0.078 0.082-0.519 0.398c-1.094 0.696-2.176 1.508-3.243 2.442-1.121 0.984-1.933 1.828-2.437 2.519 0.851 0.188 1.183 0.266 1 0.239-0.137-0.024-0.227-0.039-0.281-0.039-0.106 0.027-0.161 0.199-0.161 0.519 0 1.414 0.735 3.066 2.2 4.961 1.519 1.945 2.906 2.918 4.16 2.918 1.148 0 1.746 1.641 1.801 4.922-0.161 3.387-0.243 5.187-0.243 5.398 0 0.321 0.137 0.867 0.403 1.641l0.398 1.039c-0.851-0.691-2.078-1.984-3.679-3.879-1.332-1.547-2.215-2.625-2.641-3.238v-0.004zm-1.481-3.52c-0.023-0.347-0.265-1.773-0.718-4.281-0.426-2.691-0.692-4.906-0.801-6.637-0.133 0.371-0.254 1.481-0.359 3.321-0.106 1.492-0.161 2.586-0.161 3.277 0 0.109 0.68 1.547 2.039 4.32zm-4.32-12.879-1.68 0.641c0.297 3.199 0.082 5.371-0.636 6.52-0.508 0.8-1.43 1.214-2.762 1.238-1.574 0.055-2.574 0.203-3 0.441-0.934 0.586-1.398 1.989-1.398 4.199 0 0.454 0.199 0.801 0.597 1.043 0.696 0.45 2.082 0.692 4.16 0.719l0.121 2.719c0 0.535-0.054 2.078-0.16 4.641-0.132 2.906-0.265 5.148-0.398 6.718l-0.242 0.602c-0.188-2.774-0.293-4.426-0.321-4.961-0.027-1.465-0.48-2.762-1.359-3.879-0.855-0.883-1.281-1.336-1.281-1.359 0-0.321-0.039-0.508-0.117-0.563-0.11 0-0.215-0.027-0.321-0.078-0.933 0.238-2.082 1.039-3.441 2.398-2.078 2.028-3.121 4.426-3.121 7.2 0 1.492 0.386 2.679 1.16 3.558 0.695 0.778 1.828 1.442 3.402 2 0.051-0.504 0.094-1.09 0.117-1.758 0.082-0.507 0.336-1.082 0.762-1.718 0.371 0.32 0.719 1.199 1.039 2.636-0.027-0.293-0.039-0.585-0.039-0.878 0-1.122 0.172-1.985 0.52-2.598 0.347-0.617 0.812-0.922 1.398-0.922 0.828 0 1.414 0.762 1.762 2.281 0.238 1.172 0.519 3.668 0.84 7.481 1.922-1.84 3.359-3.067 4.32-3.68 0.398-0.266 1.625-0.867 3.68-1.801l0.121-0.398-0.922 0.16c0-0.082 0.148-0.988 0.441-2.719 0.293-1.629 0.442-2.773 0.442-3.441 0-2.055-0.551-4.121-1.641-6.199-1.094-2.082-1.641-3.575-1.641-4.481 0-0.269 0.122-1.308 0.36-3.121 0.215-1.785 0.32-2.812 0.32-3.082 0-1.227-0.414-3.316-1.238-6.277 0-0.801 0.051-1.895 0.156-3.282zm45.563 6.481c-0.055-2.426-0.895-3.641-2.52-3.641-0.801 0-1.426 0.199-1.883 0.602-0.316 0.293-0.597 0.773-0.84 1.437 0.082 0.668 0.762 2 2.043 4 1.332 2.11 2.454 3.52 3.36 4.243l0.078-3.282c0-1.332-0.078-2.453-0.238-3.359zm15.839 8.719 0.04 0.281 0.039 0.039 0.043 0.242c0.105 0.266 0.277 0.652 0.519 1.16 0.317 0.321 0.481 2.399 0.481 6.239 0-0.028 0.464-1.215 1.398-3.559 0.453-1.176 0.68-4.055 0.68-8.641 0-1.254-0.2-2.226-0.602-2.918-0.371-0.644-0.863-0.949-1.476-0.921l-0.524 0.199c-0.183 0.64-0.332 1.347-0.437 2.121l-0.161 5.758zm-8.8 11.121c0.16 0.265 0.332 0.519 0.519 0.761 0.934 1.2 1.492 1.973 1.68 2.317 0.082-0.426 0.359-1.414 0.844-2.957 0.449-1.496 0.679-2.281 0.679-2.36l0.039-0.203c-0.265-2.48-0.746-4.707-1.441-6.679-0.641-1.891-1.305-3.078-2-3.559-0.371 0.293-0.719 1.32-1.039 3.078-0.293 1.735-0.453 2.656-0.481 2.762 0.879 0.508 1.321 1.094 1.321 1.762 0 0.265-0.121 0.73-0.36 1.398-0.269 0.668-0.519 1.145-0.761 1.441 0.027 0.079 0.054 0.172 0.082 0.278 0.211 0.695 0.519 1.347 0.918 1.961zm8.281 3.761c-0.16 0.161-0.242 0.332-0.242 0.516 0 0.188 0.082 0.348 0.242 0.484 0.133 0.161 0.293 0.239 0.48 0.239 0.188 0 0.36-0.078 0.52-0.239 0.133-0.136 0.199-0.296 0.199-0.484 0-0.184-0.066-0.355-0.199-0.516-0.16-0.136-0.336-0.203-0.52-0.203-0.187 0-0.347 0.067-0.48 0.203zm-86 31.559c-0.266-0.508-0.508-1.453-0.723-2.84-0.371-1.176-1.25-1.762-2.636-1.762-0.055 0-0.469 0.348-1.243 1.043-2.054-1.816-3.214-2.722-3.48-2.722-0.32 0-0.492 0.015-0.52 0.039l0.039 0.082c-0.453 0.828-0.679 2.332-0.679 4.519 0.961 1.36 2.519 2.747 4.679 4.161 2.43 1.574 4.95 3.933 7.563 7.082 0.105-0.961-0.242-2.321-1.039-4.082-1.016-2.161-1.617-3.668-1.801-4.52h-0.16v-1zm15.879-18.801 0.199 0.082c0.535 0 1.508 0.094 2.922 0.278 0.105 0.027 0.227 0.054 0.359 0.082-0.215-0.082-0.425-0.16-0.64-0.243-0.719-0.292-1.481-0.652-2.282-1.078-0.105 0.293-0.293 0.586-0.558 0.879zm-22.68-1.281-0.281 0.32 0.121-0.117 0.16-0.203zm11.52 0.16c0.293-0.32 0.812-0.476 1.558-0.476 0.907 0 1.496 0.453 1.762 1.359 0.133 0.531 0.188 1.598 0.16 3.199v6.641c-3.039-1.176-4.558-3-4.558-5.481 0-2.695 0.359-4.441 1.078-5.242zm32-9.476c-2.426-0.161-4.625-0.149-6.602 0.039l-0.598 0.558h0.481c2.879-0.211 5.117-0.414 6.719-0.597zm-14.918 1.398-0.242-1.559c0.48-0.054 0.906 0.145 1.281 0.598l0.121 0.602c-0.082 0.238-0.469 0.359-1.16 0.359zm18.636-6.398c-0.265-0.27-0.531-0.563-0.796-0.883-0.536-0.613-0.801-1.028-0.801-1.238l0.078-0.204c0.082-0.132 0.199-0.211 0.359-0.238 0.055 0.027 0.215 0.117 0.481 0.281 0.293 0.266 0.48 0.614 0.562 1.039l0.117 1.243z" inkscape:connector-curvature="0"/>
      <path id="path20" style="fill-rule:evenodd;fill:#8c847c" d="m102.52 49.531 0.039-0.121c-0.614-1.09-1.332-1.637-2.161-1.637-0.32 0-0.519 0.027-0.597 0.078-0.082 0.055-0.188 0.121-0.321 0.199l-0.359 0.403c0.559 0.398 1.027 0.707 1.399 0.918l0.281 0.16c0.828 0.453 1.347 0.801 1.558 1.039l0.161-1.039zm-41.559-1.238c-0.375-0.215-1.106-0.36-2.199-0.442-0.508 0.028-0.922 0.149-1.242 0.36-0.215 0.132-0.465 0.386-0.758 0.761l0.597 0.758 0.321 0.32c0 0.028 0.015 0.043 0.039 0.043l0.64 0.559c0.321 0.16 0.563 0.375 0.719 0.641 0.668 0 1.242-0.243 1.723-0.723 0.48-0.477 0.719-1.051 0.719-1.719l-0.559-0.558zm27.758 9c0.082 0.265 0.254 0.586 0.519 0.961 0.188 0.293 0.375 0.933 0.563 1.918l0.558-0.122 1.602-0.398c-0.109-0.746-0.469-1.359-1.082-1.84-0.641-0.508-1.359-0.679-2.16-0.519zm-19.199 9.879h-0.04l0.04-0.039v-0.161h-4.04v1.84h4.04v-1.64zm3.601-0.84c-0.43 0.054-0.641 0.121-0.641 0.199 0.133 0.055 0.227 0.16 0.282 0.32l1.316-0.519c-0.293-0.028-0.613-0.028-0.957 0zm-8.359-8 0.078 0.48 0.48-0.32c0.348-0.238 0.535-0.465 0.559-0.68-0.078-0.347-0.211-0.547-0.399-0.601-0.402 0.054-0.64 0.425-0.718 1.121zm-6.602 13.238 0.719 0.281 0.281 0.16v0.961l0.801-0.082c0.504-0.347 0.961-0.785 1.359-1.32-0.187-0.398-0.332-0.68-0.441-0.84-0.133-0.211-0.441-0.32-0.918-0.32l-2.16 0.203c0 0.051-0.094 0.133-0.281 0.238l0.64 0.719zm-19.48 8.801c-0.907-0.531-1.934-0.84-3.078-0.918l-1.204 0.16c0.243 0.105 0.762 0.332 1.563 0.68 0.851 0.398 1.32 0.597 1.398 0.597l1.321-0.519zm10.922-17c1.812-1.145 2.625-1.895 2.437-2.238-0.184-0.321-0.625-0.481-1.32-0.481-0.239 0-0.453 0.121-0.641 0.359-0.051 0.082-0.211 0.36-0.476 0.84l-0.043 1.52h0.043zm-23.524 3.722c0.617 0.266 1.254 0.704 1.922 1.317 0.613 0.562 1.121 0.91 1.52 1.043h0.878c0.082-0.188 0.176-0.414 0.282-0.68 0.082-0.215 0.121-0.496 0.121-0.84 0-0.457-0.266-0.883-0.801-1.281-0.801-0.535-2.039-0.867-3.719-1-0.773-0.375-1.16-0.293-1.16 0.238 0 0.321 0.106 0.575 0.32 0.762 0.106 0.078 0.321 0.227 0.637 0.441z" inkscape:connector-curvature="0"/>
      <path id="path22" style="fill-rule:evenodd;fill:#c3b9ac" d="m93.719 55.933h-1.52v1.559h1.52v-1.559zm2.64-6.523c-0.48 0.027-0.984 0.148-1.519 0.363-0.106 0.051-0.227 0.106-0.36 0.16-0.32 0.321-0.48 0.68-0.48 1.078 0 0.321 0.039 0.536 0.121 0.641 0.051 0.078 0.172 0.215 0.359 0.398l2 1.204 5.879-1.883-0.16-0.438c-0.48-0.59-0.785-0.906-0.918-0.961-0.133-0.082-0.773-0.226-1.922-0.441l-2.679-0.121h-0.321zm-38.199 22.16c-4.027-0.559-6.082-0.84-6.16-0.84l-2.121 0.203c0 0.024-0.067 0.067-0.199 0.117-0.133 0.083-0.2 0.282-0.2 0.602 0 0.691 0.454 1.227 1.36 1.602 1.547 0.636 4.586 1.078 9.121 1.316v-1.68l-0.801 0.082v-0.961l-0.281-0.16-0.719-0.281zm27.36-14.238-0.758 0.32c-1.922 1.172-2.95 1.813-3.082 1.918-1.016 0.773-1.52 1.59-1.52 2.441 0 0.266 0.149 0.602 0.442 1 0.425 0.614 1.011 0.922 1.757 0.922 1.895 0 3.629-0.457 5.2-1.363 1.226-0.719 2.16-1.559 2.8-2.52l-0.558 0.122c-0.188-0.985-0.375-1.625-0.563-1.918-0.265-0.375-0.437-0.696-0.515-0.961l-0.364-0.082c-0.664-0.078-1.293-0.106-1.879-0.078l-0.96 0.199zm-18.598 27.558h0.316l2.364-0.918 0.398-0.562c-0.398-0.344-0.801-0.586-1.199-0.719-0.613-0.215-1.442-0.32-2.481-0.32l-1.281 0.039c-0.078 0-0.16 0.027-0.238 0.082-0.188 0.105-0.281 0.32-0.281 0.641 0 0.878 0.613 1.343 1.839 1.398 0.879 0.055 1.067 0.176 0.563 0.359zm-31.723-29.797v0.118c0.188 0.16 0.613 0.425 1.281 0.8 0.719 0.426 1.2 0.653 1.442 0.68l0.437 0.039c0.106-1.039-0.148-1.691-0.757-1.957-0.348-0.137-1.161-0.187-2.442-0.16l0.039 0.48zm23.879-3.8c-0.156-0.266-0.398-0.481-0.719-0.641l-0.437-0.121c-0.16 0.082-0.281 0.199-0.363 0.359 0 0.243 0.269 0.414 0.8 0.52 0.536 0.109 0.774 0.066 0.719-0.117zm12.602 21.918c0.347 0.132 0.972-0.293 1.882-1.278-0.429-0.297-1.187-0.441-2.281-0.441 0 0.051-0.066 0.187-0.203 0.398-0.133 0.243-0.211 0.481-0.238 0.723 0.265 0.051 0.547 0.254 0.84 0.598zm-6.2-4.52c-0.292-0.055-0.558-0.078-0.8-0.078l-1.559 0.16c0.238 0.426 0.492 0.731 0.758 0.918 0.508 0.348 1.332 0.641 2.48 0.879l0.801-1.316c-0.16-0.137-0.508-0.282-1.039-0.442h-0.641v-0.121zm4.04-1.558-0.04 0.039h0.04l0.441 0.441c0.426 0.32 0.891 0.52 1.398 0.598l0.84 0.242v-1.32c-0.133-0.106-0.426-0.188-0.879-0.243-0.48-0.078-0.906-0.093-1.281-0.039l-0.519 0.282zm-4.68-8.321-0.078-0.48c-0.27-0.266-0.617-0.399-1.043-0.399-0.321 0-0.774 0.039-1.36 0.117l-0.757 0.122c0 0.082-0.122 0.171-0.364 0.281 0.137 0.183 0.149 0.387 0.043 0.597 0.184 0.27 1.254 0.735 3.199 1.403 0.239-0.856 0.36-1.403 0.36-1.641zm-19.078 25.641c-0.215-0.266-0.387-0.453-0.524-0.563-0.183-0.183-0.476-0.277-0.879-0.277l-2.48 0.238c1.066 0.453 1.883 0.746 2.441 0.879 0.348 0.082 0.746 0.11 1.2 0.082 0-0.082 0.082-0.199 0.242-0.359zm-9.762 0.199c0.133-0.082 0.855-0.535 2.16-1.359-0.105-1.067-1.801-2.067-5.082-3-3.305-0.961-4.957-0.563-4.957 1.199 0 1.039 1.106 1.933 3.32 2.68 1.118 0.375 2.254 0.64 3.399 0.8 0.375 0 0.762-0.105 1.16-0.32zm13.602-21.281h-0.043l0.043-1.52c-0.161-0.746-0.774-1.414-1.84-2-0.961-0.508-1.883-0.758-2.762-0.758-0.934 0-1.613 0.372-2.039 1.118-0.242 0.425-0.359 0.855-0.359 1.281 0 0.906 0.664 1.652 2 2.238 1.066 0.481 2.093 0.723 3.078 0.723 0.535 0 1.16-0.094 1.879-0.281l0.043-0.801zm-3.043-11.438c1.203 0.371 2.652 0.559 4.363 0.559 1.707 0 3.172-0.188 4.398-0.559 1.2-0.375 1.801-0.828 1.801-1.363 0-0.531-0.601-0.984-1.801-1.359-1.226-0.371-2.695-0.559-4.398-0.559-1.707 0-3.16 0.188-4.363 0.559-1.227 0.375-1.84 0.828-1.84 1.359 0 0.535 0.613 0.988 1.84 1.363zm-17.039 17.52c-0.399-0.133-0.907-0.481-1.52-1.043-0.668-0.613-1.305-1.051-1.922-1.317-1.039-0.242-2.691-0.375-4.957-0.402 0 0.828-0.176 2.055-0.519 3.68-0.375 1.469-0.563 2.226-0.563 2.281 0 0.641 0.293 1.121 0.883 1.441 0.637 0.317 1.68 0.477 3.117 0.477 1.656 0 3.027-0.652 4.121-1.957 0.906-1.066 1.36-2.121 1.36-3.16z" inkscape:connector-curvature="0"/>
      <path id="path24" style="fill-rule:evenodd;fill:#7c7367" d="m87.762 54.972c0.984-1.785 1.929-3.32 2.84-4.601 0.398-0.692 0.597-1.852 0.597-3.481 0-0.504-0.078-0.906-0.238-1.199-0.242-0.426-0.707-0.734-1.402-0.918-0.079-0.109-0.145-1.547-0.2-4.32-0.105-1.629-0.332-3-0.679-4.121-0.403-0.614-0.707-1.266-0.918-1.961-0.055-0.106-0.121-0.199-0.203-0.278l-0.481-0.039c-0.133-0.347-0.156-1.043-0.078-2.082l-0.16-1.64c0-0.453 0.105-1.094 0.32-1.922 0.348-1.438 0.774-4.266 1.278-8.477l-0.719-0.363 0.801-0.277v-0.082c0.425-0.051 0.933-0.067 1.519-0.039 0.586 0.05 1.016 0.132 1.281 0.238 1.68 0 3.106 0.496 4.282 1.48 1.171 1.016 1.757 2.227 1.757 3.641l0.121 0.68 0.161-5.758-1.161-6.84 0.243-0.359c0.023 0 0.039-0.028 0.039-0.082h0.48c0.106 0 0.481 0.226 1.117 0.679 0.856 0.614 1.641 1.348 2.364 2.203l0.156 0.157c-0.746-1.332-1.133-2.012-1.156-2.039l-0.161-0.36c2.266 0.215 3.747 0.188 4.438-0.082 0.695-0.265 1.039-0.918 1.039-1.957 0-1.148-1.359-2.082-4.078-2.801-2.081-0.562-4.015-0.839-5.8-0.839-0.906 0-1.894 1.05-2.961 3.16-0.906 2.183-1.398 3.359-1.476 3.519l-0.121 0.199-0.403-3.64-0.476 0.883 0.355-1.883c0-1.094-0.238-2.039-0.719-2.84-0.371-0.586-0.797-0.961-1.281-1.121-0.156-0.024-0.316-0.039-0.476-0.039l-3.602-0.481c0.535 0.696 1.148 2.149 1.84 4.36 0.801 2.48 1.254 4.695 1.359 6.64l-0.121 0.801c-1.73-2.988-3.504-5.387-5.316-7.199-0.508-0.535-1.293-1.055-2.36-1.563-0.59-0.32-0.882-0.796-0.882-1.437 0-0.508 0.121-1.293 0.359-2.359-0.559 0.503-1.024 1.05-1.399 1.636-0.292 0.453-0.441 0.75-0.441 0.883 0 0.559 0.883 1.508 2.641 2.84 1.761 1.332 2.64 2.812 2.64 4.441 0 0.614-0.226 1.465-0.679 2.559 0.16 0.906 0.238 2.027 0.238 3.359l-0.078 3.282c-0.906-0.723-2.028-2.133-3.36-4.243-1.281-2-1.961-3.332-2.043-4-1.117-3.011-1.757-4.851-1.918-5.519-0.132-0.586-0.199-1.653-0.199-3.199l0.117-2.84-2.796-0.559c-0.481 2.957-0.868 5.719-1.161 8.281l-0.281 0.758c-0.133-0.32-0.64-1.851-1.519-4.601-0.614-1.84-1.161-3.051-1.641-3.641-0.828-0.984-2.039-1.758-3.641-2.316-1.597-0.454-2.586-0.801-2.961-1.043l-3.918 0.882c5.465 1.04 8.918 2.133 10.36 3.278 1.226 0.933 1.84 2.707 1.84 5.32 0 1.574-0.575 2.363-1.719 2.363-0.934-0.082-1.574-0.148-1.922-0.203-0.531-0.051-0.918 0.067-1.16 0.36-0.477 0.586-0.719 3.109-0.719 7.562 0 1.332 0.203 2.625 0.602 3.879 0.32 1.066 0.64 1.719 0.961 1.961l0.078-0.719c0.051-1.386 0.226-2.75 0.519-4.082 0.426-1.894 1-3.094 1.719-3.601 1.199 0.91 2.082 2.8 2.641 5.683 0.347 2.852 0.547 4.438 0.597 4.758 0.243 1.094 1.176 2.52 2.801 4.281 1.734 1.891 2.668 3.012 2.801 3.36-0.051-0.375-0.441-1.469-1.16-3.282-0.664-1.734-1.078-2.718-1.239-2.957 1.172 1.493 2.266 3.317 3.282 5.477 0.984 2.293 1.718 3.91 2.199 4.84 1.598 3.121 3.867 4.457 6.801 4 0.078-0.985 0.105-3.293 0.078-6.918 0.801 1.601 1.586 5.199 2.359 10.801 0 1.171-0.144 2.293-0.437 3.359-0.137 0.375-0.817 2.32-2.043 5.84 0.293-0.266 0.652-0.547 1.082-0.84l0.961-0.641zm26.558-5c-2.8-1.015-4.972-1.761-6.519-2.242l-0.641-0.078c2.852-0.082 4.719-1.492 5.602-4.242 0.078-0.211 0.426-2.613 1.039-7.199 0.265-1.84 0.652-3.571 1.16-5.2 0.316-0.984 0.48-2.625 0.48-4.918 0-0.214-0.109-1.148-0.32-2.8-0.242-1.973-0.48-3.493-0.719-4.559l-0.32-1.082c0.078 0.641-0.016 1.84-0.281 3.602-0.215 1.625-0.426 2.757-0.641 3.398l-0.437 0.961c-0.188-0.773-0.27-1.855-0.243-3.242 0-0.719 0.028-1.531 0.082-2.438 0-1.043-0.601-1.933-1.8-2.679-1.227-0.75-3.149-1.403-5.762-1.961l-0.758-0.2c0.211 0.426 0.531 1.864 0.957 4.317 0.403 2.215 0.613 3.562 0.641 4.043v1c-0.906-1.684-1.707-3.176-2.399-4.481 0.426 1.414 0.641 2.934 0.641 4.559-0.508 6.055-0.762 9.348-0.762 9.879 0 0.32 0.082 2.43 0.242 6.32 0.051 1.52-0.093 2.52-0.441 3-0.426 0.563-1.398 0.961-2.918 1.199-0.109 0.028-2.48 0.309-7.121 0.84l0.32 0.16c0.078 0.028 0.321 0.121 0.719 0.282 0.293 0.105 0.441 0.187 0.441 0.242 2.934 0.105 5.051 0.222 6.36 0.359 1.465 0.133 2.918 0.371 4.359 0.719 1.36 0.187 3.094 0.613 5.199 1.281 1.094 0.371 2.348 0.797 3.762 1.278l0.078-0.118zm-80.242 4.121c-1.73-2.187-2.773-3.441-3.117-3.761-0.563-0.426-1.414-1.188-2.563-2.282l-0.117-0.117c0.824 1.332 1.414 2.227 1.758 2.68 0.883 1.199 1.961 2.344 3.242 3.437l-5.082-3.199c-0.054-0.133-0.293-0.707-0.719-1.718-0.375-0.856-0.585-1.403-0.64-1.641 0 1.918 0.707 3.558 2.121 4.918 0.211 0.242 0.453 0.453 0.719 0.64 0.215 0.083 0.425 0.161 0.64 0.243 0.852 0.105 1.375 0.25 1.559 0.437l-0.32 0.043 1.64 0.637c0.242 0.027 0.508 0.043 0.801 0.043l0.078-0.36zm58.32-20c1.387-0.054 2.524 0.36 3.403 1.239 1.414 1.386 2.972 2.48 4.679 3.281-0.32-2.801-1.265-4.68-2.839-5.641l-0.082 3.481c-0.985-1.332-1.598-2.481-1.84-3.442-0.239 0.028-0.824 0.176-1.758 0.442-0.961 0.238-1.469 0.387-1.52 0.441l-0.043 0.199zm-16.597 4.52c-0.242 0.078-1.36 0.359-3.36 0.84-1.816 0.453-2.894 0.758-3.242 0.918-1.332 0.613-3.094 1.855-5.277 3.722-1.977 1.758-3.016 2.68-3.121 2.758 3.625-1.785 5.679-2.918 6.16-3.398 0.133-0.133 0.465-0.067 1 0.199 1.414 0 3.758 0.398 7.039 1.199 3.254 0.801 5.602 1.199 7.039 1.199-1.465-1.25-3.039-1.933-4.719-2.039-3.066-0.214-5.093-0.441-6.082-0.679l-1.238-0.16c0.961-0.106 2.773-0.133 5.441-0.079 0.184-0.402 0.305-1.894 0.36-4.48zm-2.801-12.563c-1.574-3.917-2.668-6.507-3.281-7.757-0.957-2-2.348-2.961-4.16-2.883h-0.637c0.316-0.453 0.691-0.824 1.117-1.117 0.32-0.215 0.535-0.321 0.641-0.321 1.465 0 2.906 0.907 4.32 2.719 1.145 1.442 1.812 2.668 2 3.68v5.679zm24.602-0.277 0.039 0.32 0.082 1.161 0.355 0.679 0.043-1c-0.242-0.508-0.414-0.894-0.519-1.16zm-86.481 46.879c0.348 0 0.641-0.094 0.879-0.281 0.238-0.16 0.359-0.36 0.359-0.598 0.161-0.695 0.36-1.375 0.602-2.043 0-0.504-0.199-1.305-0.602-2.398-0.347-1.012-0.679-1.785-1-2.321-4.718-2.453-7.425-3.839-8.121-4.16l0.442 0.481c4.879 3.761 7.32 6.828 7.32 9.199l-0.039 1.121v1h0.16zm4.039-5.16c0-0.535-0.238-1-0.719-1.399-0.507-0.375-1.109-0.562-1.8-0.562 0.238 0.16 0.679 0.426 1.32 0.801 0.559 0.375 0.961 0.761 1.199 1.16zm-11.281-15.602-1.68 1.762c0.746-0.027 2.774 0.746 6.082 2.32-0.215-1.468-0.574-2.761-1.082-3.879-0.105-0.16-0.679-1.148-1.719-2.96l-0.082 0.199c0.829 1.652 1.321 2.746 1.481 3.281-0.399-0.055-0.934-0.203-1.598-0.441-0.668-0.266-1.093-0.399-1.281-0.399l-0.121 0.117zm12.762-25.16c-0.082 0.137-1.973 3.336-5.68 9.602 0.027 0.027 0.066 0.039 0.117 0.039 0.801 0.347 1.91 0.707 3.32 1.082 0.907 0.265 1.497 0.547 1.762 0.84 0.426 0.507 0.625 2.879 0.602 7.121 0.023-0.11 0.265-1.281 0.718-3.52 0.106-0.535 0.161-3 0.161-7.402 0-0.879-0.188-1.895-0.563-3.039-0.211-0.586-0.41-1.121-0.598-1.602 0-0.508 0.051-1.465 0.161-2.879v-0.242zm6.437-7.918-2.277 2.559c0 1.601 0.094 2.695 0.277 3.281 0.375 0.691 0.723 1.402 1.043 2.121 0.106-0.695 0.293-2.094 0.559-4.203 0.293-2.316 0.425-3.57 0.398-3.758zm7.524-6.359c-0.668 0.371-1.309 0.773-1.922 1.199l0.64 3.68c0.028-0.028 0.188-0.239 0.481-0.641 0.133-0.215 0.238-0.32 0.32-0.32 0.078-0.879 0.238-2.188 0.481-3.918zm-29.321 55.437-0.242-1.039-0.039-0.039c0 0.16 0.012 0.332 0.039 0.52 0.055 0.347 0.133 0.535 0.242 0.558zm38.52-25.437-0.121 0.398h0.8l0.598-0.558c1.043-0.856 1.762-2.27 2.16-4.243 0.242-1.093 0.364-2.183 0.364-3.281 0-1.332-0.414-2.679-1.243-4.039-1.757-2.906-3.093-5.32-4-7.238-0.105 1.172-0.16 2.027-0.16 2.558 0 2.348 0.496 4.172 1.481 5.481 0.961 1.281 1.441 2.359 1.441 3.238 0 2.617-0.441 5.176-1.32 7.684zm8.679-37.641 0.282 0.52 0.879 1c-0.133-0.399-0.375-0.989-0.719-1.762l-0.442 0.242zm1.758 2c1.121 3.973 1.961 6.321 2.524 7.039l0.238 0.043 0.078-1.683c0-1.25-0.172-2.2-0.519-2.84-0.321-0.613-1.094-1.465-2.321-2.559zm-11.398 2.199-2.442 0.879c0.137 0.535 0.149 1.707 0.043 3.52l0.52-0.641c0.559-0.929 1.184-2.183 1.879-3.758z" inkscape:connector-curvature="0"/>
      <path id="path26" style="fill-rule:evenodd;fill:#635b52" d="m75.879 35.293c0.082 0.933 0.055 2.039-0.078 3.316-0.055 2.59-0.176 4.082-0.36 4.484-2.668-0.054-4.48-0.027-5.441 0.079l1.238 0.16c0.989 0.238 3.016 0.465 6.082 0.679 1.68 0.106 3.254 0.786 4.719 2.039l0.52 0.602c0.75 0.961 1.363 2.266 1.839 3.918 0.641 2.27 0.762 4.629 0.364 7.082l0.758-0.32 0.199-0.879c1.226-3.52 1.906-5.469 2.043-5.84 0.293-1.066 0.437-2.188 0.437-3.359-0.773-5.602-1.558-9.204-2.359-10.801 0.027 3.625 0 5.933-0.078 6.918-2.934 0.453-5.203-0.879-6.801-4-0.481-0.934-1.215-2.547-2.199-4.84-1.016-2.16-2.11-3.988-3.282-5.481 0.161 0.243 0.575 1.227 1.239 2.961 0.722 1.813 1.109 2.907 1.16 3.282zm27.562-15.321c0.692 1.305 1.493 2.801 2.399 4.481v-1c-0.028-0.481-0.238-1.828-0.641-4.043-0.426-2.449-0.746-3.891-0.961-4.317l0.762 0.2c2.613 0.558 4.535 1.215 5.762 1.961 1.199 0.746 1.797 1.64 1.797 2.679-0.051 0.907-0.079 1.719-0.079 2.438-0.027 1.387 0.051 2.469 0.239 3.242l0.441-0.961c0.215-0.641 0.426-1.773 0.641-3.398 0.265-1.762 0.359-2.961 0.277-3.602l0.32 1.082c0.243 1.066 0.481 2.586 0.723 4.559 0.211 1.652 0.317 2.586 0.317 2.8 0 2.293-0.161 3.934-0.477 4.918-0.508 1.629-0.895 3.36-1.16 5.2-0.613 4.589-0.961 6.988-1.043 7.203-0.879 2.746-2.746 4.16-5.598 4.238l0.641 0.082c1.547 0.477 3.719 1.227 6.519 2.238l0.52-0.558c1.281-1.387 2.465-3 3.558-4.84 1.2-2.055 1.801-3.613 1.801-4.68 0-0.535-0.215-3.922-0.64-10.16 0-0.535 0.265-3.336 0.8-8.402 0-1.227-1.082-3.039-3.242-5.438-2.051-2.269-4.305-4.242-6.758-5.922-1.36-1.039-2.19-1.679-2.48-1.918-0.4-0.293-0.99-0.48-1.76-0.562-3.98-0.266-9.987-0.957-18.042-2.078 0.481 0.16 0.906 0.531 1.281 1.117 0.481 0.801 0.719 1.75 0.719 2.84l0.121 1 0.399 3.64 0.121-0.199c0.078-0.16 0.57-1.332 1.48-3.519 1.067-2.106 2.051-3.16 2.957-3.16 1.789 0 3.719 0.281 5.801 0.839 2.719 0.723 4.082 1.653 4.082 2.801 0 1.039-0.348 1.695-1.043 1.961-0.691 0.266-2.172 0.293-4.437 0.078l0.16 0.36c0.023 0.027 0.414 0.707 1.156 2.043 0.59 1.117 1.445 2.703 2.566 4.757zm-15-0.039c0.024 0.024 1.024 0.797 3 2.321 1.2 0.906 2.118 1.73 2.758 2.476 1.762 2.16 2.266 4.922 1.52 8.281 0.242 0.961 0.855 2.11 1.84 3.442l0.082-3.481c0.16-2.265 0.187-4.175 0.082-5.718l-0.082-1.161-0.082-0.562-0.039-0.039-0.04-0.281-0.121-0.68c0-1.414-0.586-2.625-1.757-3.641-1.175-0.984-2.601-1.48-4.281-1.48-0.375-0.106-0.855-0.172-1.441-0.199-0.586 0-1.039 0.027-1.359 0.082l-0.801 0.277 0.722 0.363zm-16.838-17.16c-1.735-0.348-3.68-1.082-5.84-2.203-1.227-0.613-3.016-0.73-5.364-0.359 0.375 0.242 1.364 0.586 2.961 1.043 1.602 0.558 2.813 1.332 3.641 2.316 0.48 0.59 1.027 1.801 1.641 3.641 0.879 2.75 1.386 4.281 1.519 4.601l0.281-0.758c0.293-2.562 0.68-5.324 1.161-8.281zm12.398 2.117-5.121-0.797v0.04c-0.238 1.066-0.359 1.851-0.359 2.359 0 0.641 0.292 1.117 0.882 1.441 1.067 0.504 1.852 1.024 2.36 1.559 1.812 1.812 3.586 4.215 5.316 7.199l0.121-0.801c-0.105-1.945-0.558-4.16-1.359-6.636-0.692-2.215-1.305-3.668-1.84-4.364zm-11 21.16v-5.679c-0.188-1.012-0.852-2.238-2-3.68-1.414-1.812-2.852-2.719-4.32-2.719-0.106 0-0.321 0.106-0.641 0.321-0.426 0.293-0.801 0.664-1.117 1.117h0.64c1.813-0.078 3.2 0.883 4.161 2.883 0.609 1.254 1.703 3.84 3.277 7.757zm-58.078 42.161 0.117-0.278 0.121-0.441c-0.238-0.399-0.64-0.785-1.199-1.16-0.641-0.375-1.082-0.641-1.32-0.801-0.348-0.238-0.719-0.465-1.121-0.68l-0.481-0.199 0.32 0.359c0.321 0.536 0.653 1.309 1 2.321 0.403 1.093 0.602 1.894 0.602 2.398l0.117 1.203c0.082-0.16 0.402-0.59 0.961-1.281 0.453-0.586 0.746-1.066 0.883-1.441zm11.918-20.719c0.055 0.238 0.265 0.785 0.64 1.641 0.426 1.011 0.665 1.585 0.719 1.718l5.082 3.199c-1.281-1.093-2.359-2.238-3.242-3.437-0.344-0.453-0.934-1.348-1.758-2.68-0.109-0.508-0.281-1.066-0.519-1.679-0.321-0.75-0.602-1.161-0.84-1.243l-0.082 2.481zm-22.68 4.078-0.16 0.203c0.188 0 0.613 0.133 1.281 0.399 0.664 0.238 1.199 0.386 1.598 0.441-0.16-0.535-0.652-1.629-1.481-3.281-0.398 0.961-0.812 1.707-1.238 2.238z" inkscape:connector-curvature="0"/>
      <path id="path28" style="fill-rule:evenodd;fill:#898074" d="m87.281 55.332-0.48 0.281 0.039 0.437c0.133-0.292 0.281-0.531 0.441-0.718zm10.36-22.36c1.574 0.961 2.519 2.84 2.839 5.641-1.707-0.801-3.265-1.895-4.679-3.281-0.879-0.879-2.016-1.293-3.403-1.239 0 0.079-0.226 0.864-0.679 2.36-0.481 1.547-0.758 2.531-0.84 2.957-0.188-0.344-0.746-1.117-1.68-2.317-0.187-0.242-0.359-0.496-0.519-0.761 0.347 1.121 0.574 2.492 0.679 4.121 0.055 2.773 0.121 4.211 0.2 4.316 0.695 0.188 1.16 0.496 1.402 0.922 0.16 0.293 0.238 0.695 0.238 1.199 0 1.629-0.199 2.785-0.597 3.481-0.911 1.281-1.856 2.812-2.84 4.601 1.703-1.175 3.144-3.043 4.316-5.601 0.75-1.574 2.469-2.36 5.16-2.36 0.614 0 1.75 0.039 3.403 0.122 2.023 0.132 3.57 0.265 4.636 0.398-1.437-0.348-2.89-0.586-4.355-0.719-1.309-0.137-3.43-0.254-6.363-0.359 0-0.055-0.145-0.137-0.438-0.242-0.402-0.161-0.641-0.254-0.723-0.282l-0.32-0.16c4.645-0.531 7.016-0.812 7.121-0.84 1.52-0.238 2.492-0.636 2.922-1.199 0.344-0.48 0.492-1.48 0.438-3-0.161-3.89-0.239-6-0.239-6.32 0-0.531 0.254-3.824 0.758-9.879 0-1.625-0.211-3.148-0.64-4.559-1.118-2.054-1.973-3.64-2.559-4.761l-0.16-0.161c-0.72-0.851-1.509-1.585-2.361-2.199-0.64-0.453-1.011-0.679-1.121-0.679h-0.476c0 0.05-0.016 0.082-0.043 0.082l-0.239 0.359 1.161 6.84c0.105-0.774 0.254-1.481 0.437-2.121l0.524-0.199c0.613-0.028 1.105 0.281 1.476 0.921 0.402 0.692 0.602 1.664 0.602 2.918 0 4.586-0.227 7.465-0.68 8.641-0.934 2.348-1.398 3.531-1.398 3.559 0-3.84-0.161-5.918-0.481-6.239l-0.043 1-0.359-0.679c0.109 1.543 0.082 3.453-0.078 5.718zm-63.641 21.481c-0.293 0-0.559-0.016-0.801-0.043l2 0.801v-0.118l-1.199-0.64zm22.48-53.36-3.921 1.68c-0.907 0.399-2.118 1-3.637 1.797 0.344 0.773 0.586 1.363 0.719 1.762l0.597 0.48c1.231 1.094 2 1.946 2.321 2.559 0.347 0.64 0.519 1.586 0.519 2.84l-0.078 1.683-0.238-0.043c-0.774-0.664-1.364-1.586-1.762-2.758-0.238-0.773-0.695-2.359-1.359-4.761l-0.879-1c0.211 2.668 0.383 4.707 0.519 6.121 0.239 2.613 0.707 4.293 1.399 5.039l2.922-0.121c1.703-0.106 2.773 0.215 3.199 0.961 0.211 0.375 0.426 2.054 0.64 5.039 0.184 3.043 0.414 4.816 0.68 5.32 0.504 1.016 1.547 1.934 3.117 2.762 1.309 0.668 1.961 1.398 1.961 2.199 0 2.082-0.933 4-2.801 5.758-1.945 1.441-2.984 2.281-3.117 2.523 0.106 0.028 0.813 0.094 2.117 0.2 1.309 0.292 2.149 0.867 2.524 1.718l-0.082 0.602c-1.492 2.535-2.52 4-3.078 4.398 1.093 0.082 1.824 0.227 2.199 0.442 0.586-1.094 2.227-2.36 4.918-3.801 0.242-0.238 0.695-0.359 1.359-0.359 1.469 0 2.453 0.066 2.961 0.199 0.399 0.105 1.215 0.402 2.442 0.879 0.718 0.027 1.597 0.109 2.636 0.242 1.043 0.133 1.828 0.281 2.364 0.441 1.73 0.078 3.371 0.332 4.918 0.758l-0.52-0.598c-1.441 0-3.785-0.402-7.039-1.203-3.281-0.797-5.629-1.199-7.039-1.199-0.535-0.266-0.867-0.332-1-0.199-0.484 0.48-2.535 1.613-6.16 3.398 0.105-0.078 1.144-1 3.117-2.758 2.187-1.867 3.949-3.109 5.281-3.722 0.348-0.16 1.426-0.465 3.239-0.918 2-0.481 3.121-0.758 3.363-0.84 0.133-1.281 0.16-2.387 0.078-3.32-0.133-0.348-1.067-1.465-2.801-3.36-1.625-1.761-2.558-3.187-2.801-4.281-0.05-0.32-0.25-1.906-0.597-4.758-0.559-2.883-1.442-4.773-2.641-5.683-0.719 0.507-1.293 1.711-1.719 3.601-0.293 1.332-0.468 2.696-0.519 4.082l-0.082 0.719c-0.321-0.242-0.641-0.895-0.961-1.961-0.399-1.254-0.598-2.547-0.598-3.879 0-4.453 0.238-6.973 0.719-7.562 0.242-0.289 0.625-0.411 1.16-0.356 0.348 0.051 0.984 0.117 1.918 0.199 1.148 0 1.719-0.789 1.719-2.359 0-2.617-0.614-4.387-1.84-5.32-1.438-1.145-4.891-2.242-10.356-3.282zm1.2 48.957-0.321-0.32-0.199 0.602c0.133-0.375 0.305-0.465 0.52-0.282zm21.199-45.917v-0.04l-4.481-0.761-0.117 2.84c0 1.546 0.067 2.613 0.199 3.199 0.161 0.668 0.801 2.508 1.918 5.519 0.243-0.664 0.524-1.144 0.84-1.437 0.453-0.403 1.082-0.602 1.883-0.602 1.625 0 2.465 1.215 2.52 3.641 0.453-1.094 0.679-1.949 0.679-2.559 0-1.629-0.879-3.109-2.64-4.441-1.758-1.332-2.641-2.281-2.641-2.84 0-0.133 0.149-0.426 0.441-0.883 0.372-0.586 0.84-1.129 1.399-1.636zm9.562 15.8c-0.507 4.211-0.933 7.039-1.281 8.477-0.215 0.828-0.32 1.469-0.32 1.922l0.16 1.64 0.48-2.48c0.028-0.106 0.188-1.027 0.481-2.762 0.32-1.758 0.668-2.785 1.039-3.078 0.695 0.481 1.359 1.668 2 3.559 0.695 1.972 1.176 4.199 1.441 6.679 0.051-0.05 0.559-0.199 1.52-0.437 0.934-0.27 1.519-0.414 1.762-0.442 0.746-3.359 0.238-6.121-1.524-8.281-0.637-0.746-1.558-1.574-2.758-2.48-1.976-1.52-2.976-2.293-3-2.317zm1.758-9.562-0.121-1-0.359 1.883 0.48-0.883zm-2.437 24c-0.028-0.106-0.055-0.199-0.082-0.278h-0.121c0.082 0.079 0.148 0.172 0.203 0.278zm9.199 5.722c0.133-0.136 0.293-0.203 0.48-0.203 0.188 0 0.36 0.067 0.52 0.203 0.133 0.161 0.199 0.332 0.199 0.516 0 0.188-0.066 0.348-0.199 0.484-0.16 0.161-0.336 0.239-0.52 0.239-0.187 0-0.347-0.078-0.48-0.239-0.16-0.136-0.242-0.296-0.242-0.484 0-0.184 0.082-0.355 0.242-0.516zm-95.961 26.719l0.039 0.039 0.242 1.039 0.438 2.121c0-2.187 0.226-3.691 0.679-4.519l-0.039-0.082c0.028-0.024 0.2-0.039 0.52-0.039 0.266 0 1.426 0.906 3.48 2.722 0.774-0.695 1.188-1.043 1.243-1.043 1.386 0 2.265 0.586 2.636 1.762 0.215 1.387 0.457 2.332 0.723 2.84l0.039-1.121c0-2.371-2.441-5.438-7.32-9.199l-0.442-0.481c0.696 0.321 3.403 1.707 8.121 4.16l-0.32-0.359 0.481 0.199c0.402 0.215 0.773 0.442 1.121 0.68 0.691 0 1.293 0.187 1.8 0.562 0.481 0.399 0.719 0.864 0.719 1.399l-0.121 0.441c0.32-0.347 0.949-0.933 1.883-1.761 0.824-0.719 1.316-1.2 1.476-1.442-2.503-0.265-4.796-0.703-6.878-1.32-4.079-1.25-5.625-3.078-4.641-5.477 0.426 0.024 1.281 0.293 2.562 0.797 0.692 0.27 1.559 0.629 2.598 1.082-0.238-0.933-0.812-2.855-1.719-5.762-0.508-1.652-0.761-2.757-0.761-3.32 0-0.586 0.187-1.133 0.562-1.637 0.106-0.16 0.387-0.468 0.84-0.921l-2.16-2.641c0.961-1.012 1.519-1.906 1.679-2.68 0.188-0.773 0.426-1.32 0.719-1.64l0.403 0.16c0.343 1.254 0.933 2.64 1.757 4.16 0.453 0.828 0.68 2.293 0.68 4.398l-0.16 4.204 0.281-1.043c1.68-2.614 2.602-4.028 2.762-4.239 1.117-1.519 2.051-2.281 2.797-2.281 0.375 0 0.734 0.176 1.082 0.52 0.586 0.585 0.879 1.562 0.879 2.921-0.801 5.68-1.2 8.825-1.2 9.442l0.282-0.684c0.265-0.769 0.957-1.746 2.078-2.918 1.039-1.093 1.894-1.785 2.558-2.082l1.364-0.84 0.078-0.078c0.265-0.293 0.453-0.586 0.558-0.879 0.801 0.426 1.563 0.786 2.282 1.078-0.266-0.187-0.508-0.398-0.719-0.64-1.414-1.36-2.121-3-2.121-4.918l0.082-2.481c0.238 0.079 0.519 0.493 0.84 1.239 0.238 0.613 0.41 1.175 0.519 1.679l0.117 0.121c-0.105-0.347-0.265-0.945-0.476-1.8-0.055-0.106-0.094-0.211-0.121-0.321-0.348-0.879-0.547-1.863-0.602-2.957-0.32-1.441-0.664-2.32-1.039-2.64-0.426 0.64-0.68 1.211-0.762 1.718-0.023 0.668-0.066 1.254-0.117 1.762-1.574-0.562-2.707-1.226-3.402-2-0.774-0.883-1.16-2.066-1.16-3.558 0-2.778 1.043-5.176 3.121-7.204 1.359-1.359 2.508-2.16 3.441-2.398 0.106 0.051 0.211 0.078 0.321 0.078 0.078 0.055 0.117 0.242 0.117 0.563 0 0.027 0.426 0.48 1.281 1.359 0.879 1.117 1.332 2.414 1.359 3.879 0.028 0.535 0.133 2.187 0.321 4.961l0.242-0.602c0.133-1.57 0.266-3.812 0.398-6.718 0.106-2.559 0.16-4.106 0.16-4.641l-0.121-2.719c-2.078-0.027-3.464-0.265-4.16-0.719-0.398-0.242-0.597-0.585-0.597-1.039 0-2.214 0.464-3.617 1.398-4.203 0.426-0.238 1.426-0.386 3-0.441 1.332-0.024 2.254-0.438 2.762-1.238 0.718-1.149 0.933-3.321 0.636-6.52-1.277 0.559-2.543 1.16-3.796 1.801-0.243 1.734-0.403 3.039-0.481 3.918-0.082 0-0.187 0.109-0.32 0.32-0.293 0.402-0.453 0.613-0.481 0.641l-0.64-3.68c-0.453 0.32-0.879 0.641-1.282 0.957-0.21 0.188-0.89 0.844-2.039 1.961-1.226 1.176-1.984 1.922-2.281 2.242 0.027 0.184-0.105 1.442-0.398 3.758-0.266 2.109-0.453 3.508-0.559 4.199-0.32-0.719-0.668-1.426-1.043-2.117-0.183-0.586-0.277-1.68-0.277-3.281-0.774 0.933-1.84 2.281-3.199 4.039l-0.961 1.32v0.242c-0.106 1.414-0.161 2.371-0.161 2.879 0.188 0.481 0.387 1.016 0.598 1.602 0.375 1.144 0.563 2.16 0.563 3.039 0 4.402-0.055 6.867-0.161 7.402-0.453 2.239-0.695 3.41-0.718 3.52 0.023-4.242-0.176-6.614-0.602-7.121-0.265-0.293-0.855-0.575-1.762-0.84-1.41-0.375-2.519-0.735-3.32-1.082-0.051 0-0.09-0.012-0.117-0.039l-1.082 2.718c-0.32 0.989-0.852 2.387-1.598 4.204-0.855 2.078-1.562 3.625-2.121 4.636-0.265 0.43-0.492 0.84-0.68 1.243 1.04 1.812 1.614 2.8 1.719 2.96 0.508 1.118 0.867 2.411 1.082 3.879-3.308-1.574-5.336-2.347-6.082-2.32-0.293 0.32-0.707 1.481-1.238 3.481-0.641 2.343-0.961 4.398-0.961 6.16 0 0.8 0.16 1.597 0.48 2.398 0.321 0.668 0.493 1.039 0.52 1.121zm11.359 4.961 0.719-0.84-0.117-1.203c-0.242 0.668-0.441 1.348-0.602 2.043zm29.52-45.363c-0.078-0.238-0.32-0.785-0.719-1.637-0.398-0.855-0.652-1.48-0.762-1.883-1.359-2.773-2.039-4.211-2.039-4.32 0-0.691 0.055-1.785 0.161-3.277 0.105-1.84 0.226-2.95 0.359-3.321l0.043-0.039c0.504-0.695 1.316-1.535 2.437-2.523 1.067-0.93 2.149-1.746 3.243-2.438l0.519-0.402 0.078-0.078c-0.824 0.398-2.371 1.027-4.64 1.879l-1.719 0.64c-0.695 1.575-1.32 2.829-1.879 3.762l-0.52 0.637c0.106-1.813 0.094-2.985-0.043-3.516l-0.32 0.117c-0.105 1.387-0.156 2.481-0.156 3.282 0.824 2.961 1.238 5.05 1.238 6.281 0 0.266-0.105 1.293-0.32 3.078-0.238 1.816-0.36 2.856-0.36 3.121 0 0.906 0.547 2.399 1.641 4.481 1.094 2.078 1.641 4.144 1.641 6.199 0 0.668-0.149 1.812-0.442 3.441-0.293 1.731-0.441 2.637-0.441 2.719l0.922-0.16c0.879-2.508 1.32-5.067 1.32-7.68 0-0.883-0.48-1.961-1.441-3.242-0.985-1.305-1.481-3.133-1.481-5.481 0-0.531 0.055-1.386 0.16-2.558 0.907 1.918 2.243 4.332 4 7.238 0.829 1.363 1.243 2.707 1.243 4.043 0 1.094-0.122 2.184-0.364 3.281-0.398 1.973-1.117 3.383-2.16 4.239 1.977-0.188 4.176-0.2 6.602-0.039h0.121c1.758-0.481 3.121-0.723 4.078-0.723l0.16-0.078c0.188-0.133 0.387-0.254 0.602-0.36 0.16-0.109 0.238-0.335 0.238-0.683 0-1.223-0.504-2.238-1.52-3.039-0.187-0.133-1.32-0.774-3.398-1.918-3.496-1.895-5.52-4.906-6.082-9.043z" inkscape:connector-curvature="0"/>
    </g>
  </g>
<metadata><rdf:RDF><cc:Work><dc:format>image/svg+xml</dc:format><dc:type rdf:resource="http://purl.org/dc/dcmitype/StillImage"/><cc:license rdf:resource="http://creativecommons.org/licenses/publicdomain/"/><dc:publisher><cc:Agent rdf:about="http://openclipart.org/"><dc:title>Openclipart</dc:title></cc:Agent></dc:publisher></cc:Work><cc:License rdf:about="http://creativecommons.org/licenses/publicdomain/"><cc:permits rdf:resource="http://creativecommons.org/ns#Reproduction"/><cc:permits rdf:resource="http://creativecommons.org/ns#Distribution"/><cc:permits rdf:resource="http://creativecommons.org/ns#DerivativeWorks"/></cc:License></rdf:RDF></metadata></svg>
